<?xml version="1.0" encoding="UTF-8" standalone="no"?>
<!-- Created with Inkscape (http://www.inkscape.org/) -->

<svg
   width="189.99956mm"
   height="196.94701mm"
   viewBox="-5 -5 189.99956 196.94702"
   version="1.1"
   id="svg1"
   xml:space="preserve"
   inkscape:version="1.3.2 (091e20e, 2023-11-25, custom)"
   sodipodi:docname="tbot.svg"
   xmlns:inkscape="http://www.inkscape.org/namespaces/inkscape"
   xmlns:sodipodi="http://sodipodi.sourceforge.net/DTD/sodipodi-0.dtd"
   xmlns="http://www.w3.org/2000/svg"
   xmlns:svg="http://www.w3.org/2000/svg"><sodipodi:namedview
     id="namedview1"
     pagecolor="#505050"
     bordercolor="#eeeeee"
     borderopacity="1"
     inkscape:showpageshadow="0"
     inkscape:pageopacity="0"
     inkscape:pagecheckerboard="0"
     inkscape:deskcolor="#d1d1d1"
     inkscape:document-units="mm"
     inkscape:zoom="1.0242632"
     inkscape:cx="323.15913"
     inkscape:cy="378.32073"
     inkscape:window-width="1920"
     inkscape:window-height="1009"
     inkscape:window-x="-8"
     inkscape:window-y="-8"
     inkscape:window-maximized="1"
     inkscape:current-layer="layer2" /><defs
     id="defs1" /><g
     id="g1"
     style="display:inline"
     inkscape:label="Turtlebot"
     transform="translate(-15.226905,-57.250266)"><path
       style="display:inline;fill:#fefefe"
       d="m 10.226905,67.250265 c 0,-7.953398 7.856355,-15 15,-15 H 185.2269 c 7.91197,0.314589 15.00001,7.966215 15.00001,15 V 234.25027 c 0,8.41093 -5.09172,14.99999 -15.00001,14.99999 H 25.226905 c -8.922556,0.10761 -14.833366,-6.0103 -15,-14.99999 z"
       id="path8"
       inkscape:label="bg"
       sodipodi:nodetypes="ccccccccc"
       sodipodi:insensitive="true" /><path
       style="display:inline;fill:#f8c87a;fill-opacity:1"
       d="m 116.84113,208.63783 c 2.12474,-0.108 2.46652,0.41043 3.64851,-1.91016 1.18255,-2.33356 2.56835,-4.2527 3.07084,-4.2527 0.26478,0 0.3398,0.32999 0.28155,1.23855 -0.0736,1.14791 1.43988,2.84973 3.2575,1.8486 1.81761,-1.00113 1.54534,-3.15134 -0.19131,-3.92756 -0.49314,-0.17833 -0.89663,-0.39546 -0.89663,-0.48251 0,-0.25354 1.69027,-0.79375 2.48358,-0.79375 1.62191,0 3.64484,-2.1206 0.0906,-2.44362 -3.5542,-0.32301 -6.62679,1.49407 -9.72927,3.10267 l 3.79618,-5.42636 11.05332,-0.0742 6.33788,11.46094 -21.85832,11.44764 z m 5.20181,-1.02695 c -1.56892,0 -1.40343,2.27245 0,2.27245 1.40342,0 1.56891,-2.27245 0,-2.27245 z m -49.583982,-36.8246 c -2.636266,-1.42192 -1.086491,-1.87887 0.140958,-1.99809 0.681739,-0.0662 1.549645,-0.35402 1.685107,-0.97077 0.09181,-0.41801 0.337868,-0.90189 0.546796,-1.07529 0.208927,-0.17339 0.383549,-0.50904 0.388049,-0.74588 0.01647,-0.86699 2.677523,-2.43505 4.740488,-2.79341 1.994293,-0.34642 2.744931,-1.62947 1.57344,-2.68944 -0.737961,-0.66771 -2.193579,-0.62059 -4.805038,0.15554 -1.130142,0.33588 -2.663683,0.53098 -2.761109,0.43355 -0.09743,-0.0974 0.07672,-0.62136 0.386974,-1.16429 l 0.564113,-1.51633 14.169392,-0.0685 c 7.502123,-0.0377 14.802642,0.16199 14.802642,0.23109 0,0.13954 -2.95187,4.68083 -4.79811,7.45318 -0.781464,1.17346 -1.588877,2.02551 -2.332193,2.46112 -1.27617,0.74789 -17.547354,1.82343 -13.182117,1.71056 1.168901,-0.0302 -8.483126,1.99889 -11.119392,0.57696 z m 17.24594,-6.82316 c 1.159674,-0.81227 0.46243,-2.76312 -0.987553,-2.76312 -1.460293,0 -1.863825,1.66215 -0.637686,2.62663 0.835303,0.65705 0.877035,0.66055 1.625239,0.13649 z m -4.811416,-0.5176 c 0.180754,-0.72018 -0.250775,-1.45177 -0.856323,-1.45177 -0.588313,0 -1.037498,1.22082 -0.629892,1.71196 0.524357,0.63181 1.296255,0.49667 1.486215,-0.26019 z m -54.871856,-5.29165 c 0.32057,-0.14365 0.886117,-0.7785 1.256771,-1.41078 0.731379,-1.24761 1.612666,-1.86902 2.671521,-1.88373 0.879404,-0.0122 1.309687,-0.46732 1.309687,-1.38521 0,-0.99071 0.731054,-1.1779 1.841162,-0.10697 1.065903,1.02829 1.824871,2.92467 1.584724,4.20476 -0.236322,1.2597 -1.623048,3.24099 -2.746076,3.7739 -6.051939,2.00917 -7.744528,-2.37345 -5.917789,-3.19197 z M 161.26188,143.19429 c -0.58239,-1.33188 3.92885,-5.89158 5.25613,-5.28699 1.85906,0.84682 0.65188,-3.00988 2.95891,-1.01894 7.07387,6.10469 -5.77362,11.8893 -8.21504,6.30593 z M 35.471364,109.5035 c -0.927779,-0.82832 -0.573911,-1.96083 0.251262,-1.60793 1.047085,0.44781 1.946422,0.44427 2.447978,-0.01 0.638305,-0.57765 1.680186,-0.38816 1.669104,0.40682 -0.01002,0.71858 -0.617066,1.63622 -1.408554,2.05777 -0.861574,0.45888 -1.629638,0.43224 -2.556171,-0.39497 z M 158.41111,86.467238 c -0.63644,-0.636439 -0.89075,-2.790152 -0.40207,-2.790152 0.13605,0 1.06824,0.640075 1.42477,0.775629 0.50806,0.193164 0.76926,0.133719 1.20785,-0.27489 0.30778,-0.286744 0.55961,-0.635776 0.55961,-0.775628 0,-0.424099 1.51941,-0.284175 1.69148,0.164238 0.86013,2.241446 -2.80551,4.57693 -4.48164,2.900803 z m 0.39034,122.683902 c 2.12474,-0.108 2.46652,0.41043 3.64851,-1.91016 1.18255,-2.33356 2.56835,-4.2527 3.07084,-4.2527 0.26478,0 0.3398,0.32999 0.28155,1.23855 -0.0736,1.14791 1.43988,2.84973 3.2575,1.8486 1.81761,-1.00113 1.54534,-3.15134 -0.19131,-3.92756 -0.49314,-0.17833 -0.89663,-0.39546 -0.89663,-0.48251 0,-0.25354 1.69027,-0.79375 2.48358,-0.79375 1.62191,0 3.64484,-2.1206 0.0906,-2.44362 -3.5542,-0.32301 -6.62679,1.49407 -9.72927,3.10267 l 3.79618,-5.42636 11.05332,-0.0742 6.33788,11.46094 -21.85832,11.44765 z m 5.20181,-1.02695 c -1.56892,0 -1.40343,2.27245 0,2.27245 1.40342,0 1.56891,-2.27245 0,-2.27245 z m -120.738128,-0.0477 c 2.12474,-0.108 2.113838,0.42471 3.922495,-2.64079 1.808657,-3.06549 4.588662,-4.58765 7.019985,-6.68188 -1.826326,-1.13057 -5.452927,0.15451 -8.92711,1.70219 l 3.79618,-5.42636 6.095832,-0.31582 0.814554,18.40401 -11.377506,4.7462 z m 5.20181,-1.02695 c -1.56892,0 -1.40343,2.27245 0,2.27245 1.40342,0 1.56891,-2.27245 0,-2.27245 z"
       id="path7"
       inkscape:label="yellow"
       sodipodi:nodetypes="cssszssszcccccczzzzsssssssssccssszzsssssssssssssscssssscscssccsssssssccssscsssccccccsssczcccccccsss"
       sodipodi:insensitive="true" /><path
       style="display:inline;fill:#93a5c3"
       d="m 92.409602,243.9903 c -13.952862,-0.46222 -24.497726,-1.27623 -37.438539,-2.89006 -15.255181,-1.90246 -28.022344,-4.52503 -29.827291,-5.45378 -1.804947,-0.92875 -1.87916,-3.48994 -1.687422,-4.44863 l 159.13052,0.12484 c 0.23325,2.19018 -0.14192,4.1722 -1.54123,4.87798 -1.92438,0.97062 -13.92266,3.29914 -23.94542,4.64712 -19.62048,2.63879 -44.05973,3.82601 -64.690613,3.14257 z M 59.51265,213.92751 56.292272,205.2177 c -0.214782,-0.5809 1.280607,1.57719 3.252112,2.8718 1.9513,1.28136 1.943398,1.28079 17.639239,1.26904 l 14.813263,-0.0111 0.978701,-0.64767 c 1.899515,-1.25704 2.883793,-3.10841 3.412665,-6.41901 0.15049,-0.94203 0.577031,-2.31154 0.947869,-3.04335 0.794165,-1.56721 2.793029,-3.78403 3.928689,-4.35707 0.44115,-0.2226 1.59228,-1.37061 2.23526,-1.31156 l -3.795614,20.82743 z m 88.57362,-7.44877 6.3876,0.0413 -0.0913,8.49799 -9.25729,0.56834 c 0.23487,-3.38898 1.23651,-6.20879 2.96102,-9.10758 z m -2.55088,-2.66102 3.54499,-6.76636 c 0.40353,-0.77022 2.7187,0.0517 3.96473,0.0811 1.10616,0.31292 5.24767,-1.00741 4.82043,0.0623 l -3.66392,7.03493 z M 75.066661,148.46361 c -4.031361,0.0573 -8.609269,-2.26242 -12.348184,-5.76368 -3.253513,-3.04671 -5.650351,-7.35236 -7.06449,-11.66004 -0.545993,-1.66318 -0.605591,-3.15181 -0.06693,-1.6066 0.154169,0.44225 1.333134,2.13836 1.973163,3.12237 2.988351,4.59442 6.996033,7.59791 11.76603,8.81787 1.902927,0.48669 3.125079,0.51186 24.856617,0.51186 19.469593,0 23.145173,-0.0599 24.812153,-0.4042 6.93236,-1.43192 12.07165,-6.82907 13.84985,-14.54476 1.10144,-4.77923 0.99987,-11.44066 -0.26425,-17.33021 -1.52701,-7.11433 -4.97324,-12.670053 -9.87623,-15.921602 -2.04347,-1.355183 -3.89498,-2.479299 -5.6896,-2.850948 -0.8224,-0.170312 1.50372,-0.22611 6.35106,-0.180781 6.32835,0.05918 7.67089,0.117706 8.87766,0.600722 5.79003,2.317482 11.33797,10.401859 13.47613,18.881049 1.45964,5.78843 1.57837,12.63743 0.30297,17.47698 -2.66781,10.12316 -10.36114,18.03283 -19.74634,20.32664 -2.17752,0.5322 -2.98862,0.55195 -25.53229,0.62182 -16.104685,0.0499 -22.706711,-0.1387 -25.677319,-0.0965 z m 30.805639,58.39402 6.3876,0.0413 -0.0913,8.498 -9.25729,0.56834 c 0.23487,-3.38898 1.23651,-6.2088 2.96102,-9.10759 z m -2.55088,-2.66102 3.54499,-6.76636 c 0.40353,-0.77022 2.7187,0.0517 3.96473,0.0811 1.10616,0.31292 5.24767,-1.00741 4.82043,0.0623 l -3.66392,7.03493 z m -71.384838,2.86516 6.387596,0.0413 -0.0913,8.49801 -9.257286,0.56834 c 0.23487,-3.38898 1.23651,-6.20881 2.96102,-9.1076 z m -2.55088,-2.66102 3.54499,-6.76636 c 0.40353,-0.77022 2.7187,0.0517 3.964726,0.0811 1.10616,0.31292 5.24767,-1.00741 4.82043,0.0623 l -3.66392,7.03493 z"
       id="path6"
       inkscape:label="grey"
       sodipodi:nodetypes="cszccsssccssscssssccccccccccszsccsssssscssssssssssssscccccccscccccccccccscccc"
       sodipodi:insensitive="true" /><path
       style="display:inline;fill:#b27134;fill-opacity:1"
       d="m 44.992695,216.22416 c -0.250718,-0.61695 0.397339,-0.71821 1.999512,-0.84682 1.663946,-0.13356 4.936193,-1.50234 4.936193,-2.0648 0,-0.14706 -0.416719,-1.09487 -0.926042,-2.10625 -0.938568,-1.86375 -1.456137,-3.38021 -0.67307,-4.7625 l 0.813724,-1.43641 c 3.487429,5.25912 5.385025,7.85615 10.580812,11.69367 1.341167,0.009 0.537613,1.72842 0.08994,3.1446 -0.70674,2.23573 -12.331493,7.42618 -16.821069,-3.62149 z m 72.706545,-0.38775 c 0,-0.91204 16.21651,0.8644 16.24603,-13.85687 0.004,-1.76046 0.57447,-2.44543 0.95778,-2.12733 12.4284,5.56761 -2.22322,41.06309 -17.20381,15.9842 z m 18.7306,-22.66451 c 0.35507,-0.31915 8.61124,0.007 9.03073,0.28778 0.38569,0.25844 -2.27322,6.44143 -3.90219,6.42591 -1.62896,-0.0155 -5.24331,-6.20725 -5.12854,-6.71369 z M 73.824987,171.71796 c -0.574695,-0.13068 -0.34045,-1.91187 0.132291,-2.15761 0.472741,-0.24574 1.113368,-0.61217 2.101886,-0.51506 0.988518,0.0971 0.34575,0.13995 7.486897,-0.0308 11.024499,-0.26361 12.227938,-0.54647 13.526053,-1.30722 1.153216,-0.67583 2.637476,-3.93649 4.484136,-6.83462 1.84666,-2.89812 0.75631,-1.74662 1.30439,-2.04711 0.42695,-0.23408 4.06797,-0.42609 4.40636,0.0669 0.3384,0.49295 -0.81401,0.98913 -1.60998,2.30755 -0.79597,1.31842 -1.58209,3.21047 -2.25664,5.08239 -0.84275,2.3387 -2.13322,4.53715 -3.429065,4.96482 0,0 -25.571633,0.60147 -26.146328,0.47079 z m 86.836363,43.96011 c 0,-0.91204 15.3124,0.8644 15.34191,-13.85688 0.004,-1.76046 0.57447,-2.44542 0.95778,-2.12732 12.4284,5.56761 -1.3191,41.06309 -16.29969,15.9842 z"
       id="path5"
       inkscape:label="yellow_shade"
       sodipodi:nodetypes="sssssccssccccsszszzzsszzzzsczzcccc"
       sodipodi:insensitive="true" /><path
       style="display:inline;fill:#1bbe7d;fill-opacity:1"
       d="m 68.096874,204.85753 c -1.397398,-0.90142 -1.004766,-3.20663 -0.234419,-3.22194 0.770347,-0.0153 0.785053,-0.0667 1.456309,-0.97436 0.671257,-0.90771 3.12587,1.24246 2.406609,3.02477 -0.71926,1.78232 -2.231102,2.07296 -3.628499,1.17153 z m 16.533066,-0.32057 c -1.144262,-1.00411 -0.59488,-2.83449 -0.0815,-3.25092 0.51338,-0.41643 0.752632,-0.13348 0.593248,0.14671 -0.159384,0.28019 -0.243966,1.64745 0.412232,-0.16476 0.656198,-1.81221 3.120648,0.17575 3.132715,1.66284 0.01207,1.48709 -0.322023,1.30675 -0.942754,1.86939 -0.620731,0.56264 -1.969679,0.74085 -3.113941,-0.26326 z M 52.021925,186.19762 c -0.391611,-1.02052 2.09572,-8.76381 4.077777,-12.6945 0.689356,-1.36708 2.622928,-4.35238 3.435734,-5.30453 0.68963,-0.80785 1.211216,-0.91743 2.899918,-0.60923 0.842348,0.15374 2.007792,0.3566 2.589875,0.45081 0.967469,0.15658 1.491353,0.37826 1.585464,1.15174 0.335633,2.75849 1.991278,3.63926 4.925568,6.77052 0,0 0.523717,1.11061 1.414491,1.50944 0.890774,0.39883 1.581986,0.0381 3.786189,0.0912 2.204203,0.0531 4.261392,-0.24048 2.734476,4.24122 -1.731393,5.08185 -1.587153,5.69911 -15.362829,4.86987 -5.956176,-0.35854 -11.173857,0.24734 -11.572229,0.36095 -0.567885,0.16195 -0.375194,-0.4746 -0.514434,-0.83746 z m 8.021456,-6.34982 c -3.614824,0 -3.480686,5.38706 0,5.38706 3.480687,0 3.614825,-5.38706 0,-5.38706 z m 7.543297,0.13762 c -3.600409,0 -3.238168,5.29166 0,5.29166 3.238169,0 3.60041,-5.29166 0,-5.29166 z m -5.363189,-10.5672 c -5.151173,0 -5.548884,8.27376 0,8.27376 5.548884,0 5.151173,-8.27376 0,-8.27376 z m 22.717459,20.53817 c 0.164038,-3.07174 1.497628,-11.65311 2.080552,-12.21996 0.582924,-0.56685 10.806142,0.53388 12.478487,-0.74484 1.012423,-0.91741 3.281053,-3.36171 8.802073,-7.39899 3.79354,0.41516 6.27292,0.72332 9.4414,1.03936 2.37013,0.23641 2.65779,1.42465 1.917,3.91179 -0.74079,2.48714 -3.41939,14.54804 -3.41939,14.54804 z m 17.873302,-3.0703 c 4.40966,0 4.63428,-6.61555 0,-6.61555 -4.634286,0 -4.409665,6.61555 0,6.61555 z M 156.44892,170.725 c 1.61326,-0.94381 8.09245,14.63173 8.09245,14.63173 l -43.52816,1.12718 c 1.18278,-4.42379 2.81717,-8.58445 3.80243,-11.21344 0.98525,-2.62899 1.00476,-3.4236 4.18195,-5.80113 3.17719,-2.37753 4.98281,-3.77142 5.46237,-3.77142 0.47956,0 5.15484,4.20258 7.50384,5.21991 2.349,1.01733 2.41962,3.54287 3.4729,4.73139 5.48186,-2.1111 8.33203,-3.38282 11.01222,-4.92422 z m 2.42179,-7.76666 -13.30887,6.21796 -12.79692,-10.09316 c 0,0 -9.93719,5.94685 -10.63737,7.03982 l -14.11856,-2.66102 32.62286,-17.81651 z m -95.96833,-0.98305 c 1.271926,-1.5923 4.100148,-5.64864 5.516692,-6.58792 1.416545,-0.93928 3.617357,-0.11866 3.617357,-0.11866 l -4.186738,7.89832 z m 116.57755,-40.21568 c -0.64651,-0.20687 -1.70051,-1.62923 -1.70051,-2.08901 0,-0.24788 0.43377,-0.71928 0.76643,-0.74434 0.72531,-0.0546 1.45508,-0.34135 1.50892,-1.05606 0.023,-0.30491 0.12594,-0.50235 0.34634,-0.63909 0.22041,-0.13674 1.02568,-0.29474 1.44916,0.0384 0.94772,0.74547 1.10768,3.00313 0.22284,3.7996 -0.71393,0.64264 -2.05839,0.86162 -2.59318,0.6905 z m -66.64755,-44.813898 14.60703,9.047286 -38.931294,0.405178 c 0,-1.074908 6.735296,-4.85774 10.950511,-5.743443 2.567853,-0.539559 8.723083,-0.68766 9.180713,-0.195067 z M 65.420244,67.435207 c 4.151184,0 3.632348,5.38303 0,5.427282 -3.632315,0.04425 -4.151217,-5.427282 0,-5.427282 z m -1.251368,0.969639 c -0.984486,0 -0.886468,1.433182 0,1.433182 0.886468,0 0.984486,-1.433182 0,-1.433182 z m 74.765084,-0.811273 c 4.1943,0 2.83827,5.385015 0,5.385015 -3.19028,0 -4.35482,-5.385015 0,-5.385015 z m -1.19231,2.135811 c 0.98837,0 0.98636,-1.447466 0,-1.447466 -0.98635,0 -0.98837,1.447466 0,1.447466 z"
       id="path4"
       inkscape:label="green"
       sodipodi:nodetypes="zzzzzzzzzzzzssssssszzssssszzzzzzzzzczscszcczzzzcczzzzczcccccccczcccscsccssscccscczszzzzzzzzzz"
       sodipodi:insensitive="true" /><path
       style="display:inline;fill:#515685"
       d="m 51.887649,232.34141 h 29.979329 c 2.958084,0.007 3.154579,5.32297 0,5.32297 H 51.887649 c -2.96106,0 -3.051322,-5.32986 0,-5.32297 z m 37.110437,0 h 49.389454 c 2.68035,0.004 2.60408,5.31557 0,5.32297 H 88.998086 c -2.605713,0.007 -2.473311,-5.32644 0,-5.32297 z m 55.291264,0 h 22.4278 c 3.12669,0 3.1529,5.32297 0,5.32297 h -22.4278 c -3.09698,0 -3.01682,-5.32297 0,-5.32297 z M 57.947625,221.34977 c 0.181901,-0.0734 0.330729,-0.30213 0.330729,-0.50828 0,-0.20616 0.214858,-0.37483 0.477463,-0.37483 0.262604,0 0.941207,-0.42477 1.508006,-0.94394 1.095249,-1.00321 0.992913,-1.42437 -0.348254,-1.43326 -0.992782,-0.007 -3.265692,-0.84336 -4.435831,-1.63307 -1.729406,-1.16717 -3.348494,-2.85566 -3.174089,-3.31015 0.457963,-1.19343 0.440717,-1.70599 -0.08608,-2.55836 -0.305689,-0.49462 -0.555798,-1.04585 -0.555798,-1.22496 0,-0.17911 -0.190019,-0.72609 -0.422265,-1.21552 -0.232246,-0.48942 -0.360708,-1.04319 -0.285471,-1.23061 0.08766,-0.21835 0.144296,-0.17702 0.157681,0.11508 0.01149,0.25071 0.56797,1.51828 1.236625,2.81683 1.951982,3.79079 5.451416,6.90183 8.507701,7.56344 1.040732,0.2253 1.080736,0.6348 0.16798,1.71955 -0.7171,0.85223 -2.811881,2.40904 -3.192214,2.37242 -0.119302,-0.0115 -0.06808,-0.0809 0.113817,-0.15434 z m 86.923505,-6.22236 1.40406,-4.4949 c 2.58986,0.11215 5.05276,0.0792 7.3381,-0.12943 l 0.61186,4.27172 8.91862,12.3233 -10.70156,0.98158 z m -3.97019,-16.68731 c -0.15231,-0.32742 -1.06439,-1.51392 -2.02684,-2.63667 -0.96245,-1.12274 -1.74992,-2.10501 -1.74992,-2.18281 0,-0.3178 6.5122,-0.13825 6.86507,0.18927 0.28505,0.26459 0.31897,0.26459 0.16959,0 -0.1027,-0.1819 -0.0606,-0.33073 0.0935,-0.33073 0.53355,0 0.26736,0.6703 -1.04388,2.62862 -0.72444,1.08194 -1.38575,2.18327 -1.46958,2.4474 -0.20498,0.64582 -0.503,0.60489 -0.83792,-0.11508 z m 1.35748,-1.37003 c 0.37763,-0.64438 0.6866,-1.31586 0.6866,-1.49219 0,-0.17632 0.20836,-0.48028 0.46302,-0.67546 0.40482,-0.31026 0.41313,-0.38829 0.0661,-0.6208 -0.41949,-0.28109 -4.47456,-0.0818 -4.82963,0.23735 -0.10969,0.0986 -0.0333,0.40649 0.1698,0.68422 0.31799,0.43487 0.42985,0.45465 0.80596,0.14251 0.34294,-0.28461 0.50533,-0.29331 0.75623,-0.0405 0.2503,0.25222 0.21921,0.28378 -0.1435,0.14569 -0.73576,-0.28011 -0.58096,0.81913 0.26458,1.87884 0.40018,0.50154 0.80559,0.9119 0.9009,0.91191 0.0953,0 0.48227,-0.52721 0.8599,-1.17159 z m -36.3939,-38.01655 c -0.19692,-0.12479 -7.111782,-0.22871 -15.366352,-0.23094 l -15.537476,-0.004 2.295677,-3.65108 c 0.138481,-0.22024 0.435017,-0.54058 0.569616,-0.78109 0.223851,-0.4 2.113271,-0.96175 16.47615,-0.91112 8.636245,0.0304 16.879655,0.0563 17.025175,0.0575 0.15898,0.001 0.15117,0.0798 -0.0196,0.19657 -0.40202,0.27501 -4.07951,4.9855 -4.0908,5.25941 z m -3.01787,55.88175 1.40406,-4.49491 c 2.58986,0.11215 5.05276,0.0792 7.3381,-0.12943 l 0.61186,4.27173 8.91862,12.3233 -10.70156,0.98158 z m -73.653756,-0.49424 1.40406,-4.49492 c 2.58986,0.11215 5.05276,0.0792 7.338096,-0.12943 l 0.61186,4.27174 8.91862,12.3233 -10.70156,0.98158 z"
       id="path3"
       inkscape:label="grey_shade"
       sodipodi:nodetypes="sssssssssssssssscsscsssssssssssccscccccscssssssssccssssssssscccccsscccccccccccccccccccc"
       sodipodi:insensitive="true" /><path
       style="display:inline;fill:#286267;fill-opacity:1"
       d="m 51.266896,189.61036 c 0,0 0.157659,-0.65587 0.520481,-2.16525 0.362822,-1.50938 23.327689,-0.98834 25.604118,-2.785 2.276429,-1.79666 2.069287,-5.69421 3.129642,-6.74019 1.060355,-1.04598 1.373806,-0.61524 1.373806,-0.61524 l 1.328741,9.06425 c 8.929029,-0.90374 25.787226,0.90293 27.796406,-0.78732 2.00917,-1.69026 6.90429,-14.21292 10.36607,-14.25284 l -1.5924,14.25527 c 0,0 11.17461,1.4435 17.06553,-0.74003 5.29884,-1.8007 5.06805,-7.09188 6.14448,-11.64421 l 7.4748,7.36623 c 0,0 3.0847,2.25879 5.20208,0.074 4.94435,-5.1261 0.17174,-16.57351 -2.61915,-19.76037 -2.79089,-3.18686 -10.81794,-8.58657 -20.47055,-6.71934 -4.47744,2.82406 0.91462,0.42226 -8.03853,4.68491 -4.69886,2.26234 -7.68843,3.4097 -10.24855,3.93328 -0.74172,0.15169 -3.8232,1.49399 -4.56353,0.164 l 6.59913,-9.83788 14.50702,-2.03902 9.27549,-4.80781 19.72458,17.16885 9.35241,25.82645 z m 49.198534,-12.77735 c 0.0823,-0.13309 2.5e-4,-0.29175 -0.18223,-0.35257 -0.18247,-0.0608 0.14421,-0.18809 0.72596,-0.2828 1.36085,-0.22154 3.86619,-2.17471 4.92022,-3.8358 0.43275,-0.68198 1.03659,-1.92458 1.34188,-2.76132 0.32132,-0.88067 0.71386,-1.52135 0.93212,-1.52135 0.20737,0 0.31657,0.0978 0.24267,0.2174 -0.0739,0.11958 0.0381,0.54991 0.24897,0.95629 0.21083,0.40638 0.38333,1.42047 0.38333,2.25353 0,1.24267 -0.12821,1.67914 -0.71403,2.43072 -1.19362,1.53138 -2.38942,2.28545 -4.32088,2.72475 -2.01493,0.45829 -3.8085,0.54408 -3.57801,0.17115 z m 39.80697,-21.82112 c 3.21666,0 3.31279,4.89142 0,4.89142 -3.31279,0 -3.21666,-4.89142 0,-4.89142 z M 113.57571,85.339705 c -3e-4,-0.114054 0.7736,-0.167446 1.71979,-0.118649 0.9462,0.0488 1.72035,-0.01196 1.72035,-0.135008 0,-0.123052 -0.4062,-1.175008 -0.90266,-2.337681 -0.80057,-1.874857 -1.03248,-2.182025 -2.05052,-2.715844 l -1.14786,-0.601895 -0.16713,0.734186 c -0.16552,0.7271 -0.16744,0.725887 -0.19844,-0.125709 -0.0172,-0.472943 0.0327,-0.859896 0.11096,-0.859896 0.0782,0 1.21416,0.413964 2.52424,0.91992 4.29592,1.659086 9.82102,4.760613 9.3391,5.24253 -0.23244,0.232437 -10.9472,0.230526 -10.94783,-0.002 z"
       id="path2"
       sodipodi:nodetypes="czzzcczccsccszcssccccccccsssssscsssczzzcsssscssssscc"
       inkscape:label="green_shade"
       sodipodi:insensitive="true" /><path
       style="display:inline;fill:#030c22"
       d="m 17.432366,231.84375 c -3.372192,0 -3.527786,-5.8379 0,-5.8379 h 12.874221 l -0.944762,-0.99218 c -1.496401,-1.54449 -3.737669,-5.3511 -4.488861,-7.62397 -2.296816,-6.94945 -1.175746,-15.24563 2.816079,-20.83968 3.332846,-4.67056 7.660867,-7.11242 13.686829,-7.72207 l 1.750643,-0.17712 c 0.901355,-13.98963 9.051496,-29.64888 20.674846,-37.71487 -7.680762,-3.48477 -15.2982,-13.75613 -15.2982,-32.11831 0,-20.942551 16.104373,-30.916108 18.013843,-32.025153 L 68.00878,85.926045 67.28169,83.94167 c -1.927641,-5.260924 -2.445281,-6.34981 -3.021454,-6.35581 -0.988547,-0.0103 -2.754289,-0.986005 -3.952154,-2.18387 -4.699884,-4.699883 -1.484865,-12.715541 5.114022,-12.750235 2.935857,-0.01544 5.228337,1.459704 6.770466,4.356583 0.608732,1.1435 1.175717,5.012176 -1.053299,8.069791 -0.392624,0.538575 -0.242658,1.049227 1.931407,6.576653 l 0.297281,0.755819 0.899048,-0.685737 c 9.13914,-6.970761 20.577958,-10.521012 31.274813,-9.70672 3.9219,0.298553 6.34374,0.747531 9.92889,1.840687 5.23521,1.596281 10.13776,4.032293 13.73244,6.823459 0.80942,0.628492 1.58699,1.142714 1.72793,1.142714 0.27347,0 0.44858,-0.40867 1.73292,-4.044215 0.73803,-2.089106 0.78081,-2.370355 0.42254,-2.778125 -2.35985,-2.685933 -2.16745,-7.374483 0.41318,-10.068472 1.47352,-1.538258 3.20055,-2.247051 5.47655,-2.247642 4.98125,-0.0013 7.26377,4.076607 7.26377,7.496787 0.0718,3.59296 -2.7396,6.958762 -6.38428,7.408125 -0.58283,2.11e-4 -0.86468,0.604505 -3.31709,7.111874 l -0.53633,1.423124 1.28853,1.063833 c 11.55746,9.54209 15.29793,23.190717 15.29793,31.485647 0,11.70867 -4.78473,19.81016 -8.5251,24.75165 18.00046,12.28986 26.38073,27.8729 28.85718,46.32042 2.05752,0.74878 13.30829,5.8288 13.30829,19.32277 0,8.55657 -4.68809,14.06249 -7.87263,16.93507 h 14.7691 c 3.44767,-0.0226 3.77641,5.84577 0,5.84577 H 17.432366 c -1.686096,0 0,-0.008 0,-0.008 z m 101.680344,-5.74009 c -3.72689,-2.49215 -6.40678,-6.66024 -7.23503,-8.63757 -2.42723,0.0993 -4.91902,0.002 -7.32795,0 0.81355,2.05585 4.19172,6.76985 5.71925,7.99901 0.9931,0.79913 1.148,0.63856 2.6185,0.63856 z m 41.94308,-0.10495 c -2.21435,-2.17623 -4.26188,-4.47873 -5.7525,-7.21662 l -0.68137,-1.28772 -3.72185,-0.0352 c -2.04701,-0.0194 -3.72181,0.0442 -3.72178,0.14131 1.5e-4,0.4398 1.11253,2.70242 1.90473,3.87428 1.11057,1.64279 2.18942,2.85967 3.52315,3.97389 1.00126,0.83647 1.1332,0.87319 2.61464,0.7276 1.92915,-0.17597 3.90008,-0.17754 5.83498,-0.17754 z M 38.77537,217.52258 c -2.503227,0.0721 -5.00737,0 -7.511303,0 1.3413,2.9277 3.312263,5.49882 5.559498,7.79062 0.573228,0.57112 0.774281,0.72583 1.610358,0.72583 h 7.488644 c -3.171283,-2.06392 -5.38073,-5.22678 -7.147197,-8.51645 z m 59.587357,0.83369 -24.724951,-0.006 c -1.9681,3.82962 -3.335838,5.24785 -5.684054,7.67291 h 35.301648 c -2.49591,-3.09793 -2.57195,-3.20814 -4.892643,-7.66691 z m 43.030783,1.84785 c -1.36693,2.10698 -3.12764,3.97966 -4.86259,5.81879 h 9.1215 c -3.82996,-4.23931 -3.83177,-5.11535 -4.25891,-5.81879 z m -87.436567,2.20669 c 2.017468,0 6.056795,-2.07609 7.069079,-3.27912 0.912756,-1.08475 0.89686,-1.71955 -0.16798,-1.71955 -3.889122,0 -10.366346,-6.33412 -10.366346,-13.52107 0,-4.44006 0.470741,-4.99496 1.433271,-7.29342 -1.782926,0.41901 -7.797831,2.5862 -7.797831,12.75651 0,6.86077 4.537597,13.05665 9.829807,13.05665 z m 84.325077,-12.91185 c 0,-7.14178 -3.63095,-12.83671 -10.50527,-12.84332 -6.87433,-0.007 -10.70869,6.1093 -10.70869,12.84332 0,6.73401 4.3636,12.72869 10.70869,12.72869 6.34508,0 10.50527,-5.58692 10.50527,-12.72869 z m 42.01617,-0.13624 c 0,-7.47728 -3.921,-12.9189 -10.01556,-12.9189 -6.09455,0 -10.61919,5.23559 -10.61919,12.9189 0,7.6833 4.62068,12.97985 10.61919,12.97985 5.99851,0 10.01556,-5.50258 10.01556,-12.97985 z M 37.493357,207.46539 c -2.859767,0.0703 -5.237275,0.21119 -7.65771,0 -0.201772,2.11292 -0.191807,4.54275 0.561689,7.07451 2.574319,0.14999 4.97894,0 7.452194,0 -0.501611,-2.35177 -0.635943,-4.73506 -0.356173,-7.07451 z m 73.446573,-0.169 h -7.75445 c -0.36186,2.17178 -0.21804,4.94342 0.27244,7.21485 3.053,-0.0247 5.38192,0 7.72531,0 -0.45819,-2.51705 -0.51266,-5.08504 -0.2433,-7.21485 z m 42.71802,6.88642 c -0.35224,-2.29068 -0.36777,-4.6306 -0.46563,-6.94531 h -3.77243 c -3.19588,0 -3.79697,0.064 -3.93302,0.41851 -0.24423,0.63644 -0.17987,3.27061 0.11259,4.60857 0.58586,2.68021 0.0347,2.38125 4.39036,2.38125 3.57253,0 3.84547,-0.0344 3.66813,-0.46302 z m -56.485848,-3.92719 c 0,-6.08382 2.109686,-12.24925 5.409978,-15.81032 0.37149,-0.40085 0.67547,-0.81198 0.67551,-0.91362 5e-5,-0.10164 -9.242839,-0.14917 -20.539741,-0.10562 l -20.539823,0.0792 -1.222232,0.62556 c -4.468697,2.28713 -6.042817,8.33046 -3.478907,13.35614 0.774451,1.51805 2.846555,3.46894 4.652935,4.38076 l 1.57249,0.79374 15.345833,0.13849 c 8.440208,0.0762 15.97091,0.16546 16.734895,0.19843 l 1.389062,0.06 z m -30.845119,-2.81969 c -1.799433,-1.21684 -2.563527,-2.74233 -2.436272,-4.86394 0.131931,-2.19959 1.000552,-3.50252 2.980955,-4.47144 1.226335,-0.59999 1.686698,-0.69361 2.716687,-0.55243 2.516718,0.34495 4.479422,2.40433 4.745137,4.97887 0.175611,1.70151 -0.435985,3.15162 -1.82218,4.32044 -2.044088,1.72355 -4.202166,1.92891 -6.184327,0.5885 z m 4.10328,-2.70219 c 0.856315,-0.44282 1.077257,-0.87944 1.077257,-2.12889 0,-0.96772 -0.970786,-1.98194 -1.897073,-1.98194 -1.365468,0 -2.696029,2.00839 -2.085873,3.14848 0.33282,0.62188 1.306538,1.34944 1.805999,1.34944 0.193128,0 0.687989,-0.17419 1.09969,-0.38709 z m 13.380381,3.14685 c -3.39489,-1.76204 -4.306902,-5.76266 -1.930665,-8.46905 1.998112,-2.27572 5.038336,-2.52279 7.241394,-0.58848 2.435243,2.13817 2.648023,5.55534 0.481,7.7247 -1.600982,1.60271 -4.144158,2.18797 -5.791729,1.33283 z m 3.856811,-3.53316 c 0.825483,-0.82548 0.961856,-1.55338 0.465596,-2.48514 -0.734922,-1.37987 -2.21894,-1.6471 -3.2761,-0.58994 -1.312238,1.31223 -0.426991,3.84848 1.343269,3.84848 0.414096,0 1.005657,-0.31182 1.467235,-0.7734 z M 45.130569,193.43528 c -2.141377,-0.0579 -4.573371,-0.2968 -6.62008,0 -4.43629,0.64333 -7.765636,7.3805 -7.96137,10.37199 2.365028,0.31146 5.074089,0.20795 7.445543,0 1.720015,-5.16968 3.76838,-7.9934 7.135907,-10.37199 z m 73.033991,0.0143 c -2.40062,0 -5.65716,-0.58371 -7.48535,0.45147 -3.03402,1.71797 -5.55164,5.99919 -6.84709,9.93445 2.43543,0.28546 5.25698,0.003 7.71277,0 1.00377,-4.01201 2.72949,-7.38159 6.61967,-10.38592 z m 40.12629,1.81322 c 0,-0.089 -0.53286,-0.15489 -6.67213,-0.50465 -3.77281,3.24227 -5.19956,8.88161 -5.13517,8.98584 2.44756,0.2695 4.95945,0.11933 7.42546,0.0853 2.24062,-6.59191 4.38184,-8.24385 4.38184,-8.56652 z m -16.55199,3.29232 c 0.0838,-0.26413 0.74514,-1.36546 1.46958,-2.4474 0.72443,-1.08193 1.31871,-2.10468 1.32062,-2.27277 0.002,-0.21507 -1.09407,-0.31599 -3.70071,-0.34063 -2.03729,-0.0193 -3.70417,0.0331 -3.70417,0.11634 0,0.0833 0.78747,1.06997 1.74992,2.19271 0.96245,1.12275 1.87453,2.30925 2.02684,2.63667 0.33492,0.71997 0.63294,0.7609 0.83792,0.11508 z m -75.537688,-10.1031 h 13.134644 l 0.459379,-3.39055 c 0.252658,-1.86481 0.693947,-4.37266 0.980643,-5.57301 0.286696,-1.20035 0.521265,-2.33828 0.521265,-2.52873 0,-0.26591 -1.028598,-0.37907 -4.431771,-0.48755 -2.437473,-0.0777 -4.848489,-0.26921 -5.357812,-0.42559 -1.384186,-0.42498 -3.479593,-2.40298 -4.333488,-4.09067 -0.528084,-1.04374 -0.772099,-1.96486 -0.831811,-3.13995 l -0.0845,-1.66291 -3.923537,-0.98356 c -2.157946,-0.54096 -4.060366,-0.93626 -4.227602,-0.87843 -0.534111,0.18467 -3.736833,5.23605 -4.968984,7.83715 -2.25276,4.75562 -4.111139,11.47938 -4.118099,14.8996 l -0.0016,0.76643 2.024295,-0.17111 c 1.113362,-0.0941 7.934884,-0.17112 15.158939,-0.17112 z m 68.872488,0.0202 c 12.75611,-0.0192 13.42761,-0.0441 13.42761,-0.49742 0,-1.22385 -3.24237,-9.56909 -4.13373,-10.63944 -0.18367,-0.22055 -0.69356,-1.17305 -1.13308,-2.11667 -0.69714,-1.49669 -0.76742,-1.85075 -0.5506,-2.774 0.13669,-0.58208 0.25137,-1.12977 0.25484,-1.21709 0.005,-0.1211 -6.64646,-5.96922 -9.82224,-8.63619 -0.38504,-0.32334 -0.81692,-0.0669 -3.70417,2.19973 -1.79757,1.41116 -3.64926,2.87952 -4.11487,3.26302 l -0.84655,0.69728 0.28203,1.71433 c 0.27836,1.69198 0.26629,1.75598 -0.92519,4.90719 -1.26248,3.33897 -3.61686,11.4437 -3.61686,12.45068 0,0.60612 0.37515,0.86932 1.05833,0.7425 0.21829,-0.0405 6.4393,-0.0828 13.82448,-0.0939 z m 31.15433,-0.73797 c -8.6e-4,-2.36793 -1.14068,-7.36204 -2.52339,-11.05623 -1.29688,-3.46484 -4.657,-9.65082 -5.24471,-9.65548 -0.51894,-0.004 -9.34667,4.47389 -11.21703,5.69003 -0.0373,0.0242 0.5709,1.10497 1.3515,2.40163 2.13012,3.53839 4.52627,9.36442 5.07262,12.33367 l 0.18037,0.98027 c 4.12289,0.21911 8.25352,0.24326 12.381,0.30819 z m -50.35879,-3.18487 c 1.0067,-4.88333 1.6051,-6.90666 3.31418,-11.20603 0.74662,-1.87822 1.30678,-3.46567 1.24479,-3.52766 -0.062,-0.062 -2.6113,-0.42067 -5.66512,-0.79706 -3.05383,-0.3764 -5.86186,-0.74729 -6.24009,-0.82421 -0.63414,-0.12897 -0.73125,-0.0205 -1.24723,1.39375 -0.30775,0.84348 -0.91224,2.08944 -1.34333,2.7688 -0.78844,1.24254 -3.0203,3.20572 -4.25798,3.7454 -0.4002,0.17451 -3.566393,0.34726 -7.936051,0.433 l -7.270191,0.14265 -0.8389,4.29201 c -0.461395,2.3606 -0.922202,5.00974 -1.024016,5.88698 l -0.185116,1.59497 H 99.742415 115.06468 Z M 99.10546,170.97146 c 1.96385,-0.50048 2.92902,-1.67824 4.15746,-5.07319 0.44881,-1.24036 1.40511,-3.28258 2.1251,-4.53826 0.72,-1.25567 1.30908,-2.35384 1.30908,-2.44036 0,-0.21895 3.20366,-4.42242 3.5523,-4.66091 0.17075,-0.1168 0.17856,-0.19526 0.0196,-0.19657 -0.14552,-0.001 -7.3306,-0.0271 -15.966845,-0.0575 -14.362879,-0.0506 -15.723132,-0.018 -15.946983,0.38195 -0.134599,0.24051 -0.391683,0.592 -0.571297,0.78109 -0.757286,0.79721 -3.168079,4.77498 -4.441968,7.32917 -1.984929,3.97985 -2.089889,6.4497 -0.340101,8.00303 0.26956,0.2393 0.728234,0.49309 1.019276,0.564 1.120735,0.27303 23.980871,0.18881 25.084398,-0.0924 z m 50.55964,-5.42801 c 4.55461,-2.34507 5.8336,-3.11764 5.9221,-3.5772 0.10918,-0.56688 -4.33073,-5.45574 -6.87622,-7.57154 -3.00006,-2.49362 -4.51709,-3.52951 -7.29498,-4.98127 l -2.37284,-1.24007 -1.85761,1.21261 c -1.02169,0.66695 -2.2869,1.41733 -2.81158,1.66753 -0.52467,0.2502 -0.95395,0.55845 -0.95395,0.685 0,0.12654 0.34196,1.03368 0.75991,2.01585 0.41795,0.98218 0.9518,2.44583 1.18632,3.25256 0.44514,1.53123 0.85175,1.99102 4.52696,5.11912 0.85487,0.72761 2.0996,1.81006 2.76607,2.40546 0.66648,0.5954 1.6285,1.45511 2.13782,1.91047 0.50932,0.45536 1.05175,0.83142 1.20539,0.83569 0.15364,0.004 1.80182,-0.77613 3.66261,-1.73421 z m -24.14516,-4.13992 c 2.33972,-1.78543 4.43935,-3.39291 4.66585,-3.57216 0.36778,-0.29108 0.33358,-0.52025 -0.3199,-2.14353 -1.04122,-2.58644 -0.87459,-2.4521 -2.67603,-2.15746 -0.86628,0.14169 -3.42052,0.33338 -5.67609,0.42598 -3.67209,0.15076 -4.16612,0.22706 -4.72322,0.72944 -0.86471,0.77978 -4.46395,5.24796 -5.65917,7.02542 -1.17908,1.75345 -1.48077,1.56694 3.64572,2.25386 1.88616,0.25273 3.96516,0.55379 4.62,0.66903 0.65484,0.11524 1.34322,0.1659 1.52972,0.11259 0.1865,-0.0533 2.2534,-1.55774 4.59312,-3.34317 z m -57.025627,-1.05586 c 0.529207,-1.05087 1.492967,-2.78503 2.141689,-3.85369 0.648722,-1.06866 1.120433,-2.09693 1.048246,-2.28505 -0.07219,-0.18811 -0.49146,-0.41406 -0.93172,-0.50212 -0.609519,-0.1219 -0.977865,-0.0108 -1.544094,0.46552 -3.831801,3.22369 -6.36517,5.42876 -6.68676,5.82023 -0.34402,0.41877 -0.331088,0.51175 0.116716,0.8392 0.276982,0.20253 0.748738,0.37747 1.048346,0.38875 0.299609,0.0113 1.140055,0.24017 1.867659,0.50866 0.727605,0.26848 1.470248,0.49738 1.65032,0.50866 0.180072,0.0113 0.76039,-0.8393 1.289598,-1.89016 z m 78.278357,-41.40782 c 0,-10.67672 -6.63561,-22.47165 -12.85825,-26.189581 -2.89006,-1.726767 -1.67791,-1.664849 -32.59253,-1.664849 -31.080958,0 -29.509667,-0.08377 -33.028474,1.760893 -7.854919,4.117785 -13.793219,15.311317 -13.812706,25.891417 -0.01174,6.40979 1.582182,21.15068 14.454698,27.51309 4.129324,2.04097 2.812247,1.95979 30.750236,1.89677 l 24.870836,-0.0561 c 13.02827,-3.30933 22.21619,-15.55056 22.21619,-29.15164 z m -55.119862,14.81752 c -1.041319,-0.19757 -2.820157,-2.21689 -3.460477,-3.9283 -1.105598,-2.95498 -1.04914,-4.07365 0.239215,-4.73988 0.97875,-0.50613 8.438649,-0.58101 9.353263,-0.0939 1.404665,0.74813 1.545098,1.73629 0.612061,4.30678 -1.326011,3.65312 -3.478217,5.07492 -6.744062,4.45529 z m 47.672782,-9.61835 c -6.05333,0 -5.52162,-8.43422 0,-8.43422 5.52163,0 6.05334,8.43422 0,8.43422 z M 75.621715,97.587412 c 17.16846,0 17.601083,25.907648 0,25.907648 -17.601083,0 -17.168459,-25.907648 0,-25.907648 z m 1.02426,10.968708 c 6.185956,0 6.074822,-8.82596 0,-8.82596 -6.074823,0 -6.185957,8.82596 0,8.82596 z m 36.260105,14.93894 c -17.192815,0 -18.084722,-25.837296 0,-25.837296 18.08473,0 17.19282,25.837296 0,25.837296 z m 1.6331,-14.93894 c 5.84816,0 5.94818,-8.820813 0,-8.82596 -5.94817,-0.0051 -5.84816,8.82596 0,8.82596 z m -5.46087,-23.249673 c -0.62405,-3.806487 -0.89125,-5.222006 -1.37654,-7.149238 -9.819062,-1.249988 -19.55321,1.275989 -27.463,7.149238 z m 15.44523,0 c -3.78218,-3.533075 -11.76779,-6.1887 -11.94864,-6.007855 0.0963,2.089093 0.6602,3.941475 1.05699,6.007855 z M 66.563977,72.256786 c 0.855262,-0.455515 1.221533,-1.046346 1.230962,-1.985663 0.01205,-1.20071 -0.217527,-1.641714 -1.089352,-2.092552 -2.512531,-1.29928 -4.982385,1.907329 -2.850683,3.701038 0.878142,0.738908 1.791213,0.866032 2.709073,0.377177 z m 74.197813,-0.616634 c 0.8855,-1.029456 0.79765,-2.298199 -0.21832,-3.153086 -0.92009,-0.774199 -1.77799,-0.863208 -2.8712,-0.297889 -1.319,0.682086 -1.52407,2.629731 -0.39568,3.758118 0.58205,0.582051 0.84276,0.659951 1.78552,0.533501 0.74057,-0.09933 1.30005,-0.376041 1.69968,-0.840644 z m 44.12158,109.139008 c 4.56049,0 4.39717,6.87917 0,6.87917 -4.39718,0 -4.5605,-6.87917 0,-6.87917 z m -158.461334,5.99172 c -0.217523,-0.16651 -0.638768,-0.95759 -0.936101,-1.75795 -0.663753,-1.7867 -1.682582,-2.90679 -3.215327,-3.53491 -2.139725,-0.87686 -2.488554,-1.109 -2.575583,-1.71402 -0.114327,-0.79478 0.332282,-1.29116 1.361509,-1.51323 1.275215,-0.27514 2.711848,-1.07906 3.327903,-1.86225 0.303563,-0.38592 0.808991,-1.40667 1.123173,-2.26835 0.91479,-2.50889 2.224278,-2.66843 2.87338,-0.35006 0.186943,0.66769 0.682896,1.68748 1.102119,2.2662 0.713761,0.98532 1.118307,1.23445 4.007755,2.46809 0.862472,0.36823 0.997253,0.53628 0.926042,1.15464 -0.07314,0.63512 -0.306131,0.80184 -1.903855,1.36239 -2.339673,0.82085 -3.374478,1.8456 -4.11706,4.07706 -0.591299,1.77685 -1.182807,2.27799 -1.973955,1.67239 z M 181.26315,172.90781 c -0.21617,-0.25466 -0.6129,-1.05799 -0.88161,-1.78517 -0.6579,-1.78041 -2.68821,-3.89095 -4.44251,-4.61805 -2.31443,-0.95926 -2.56693,-1.13092 -2.56693,-1.74503 0,-0.71748 0.35411,-1.01371 1.71979,-1.43867 2.62858,-0.81794 4.19265,-2.37229 5.42553,-5.39181 0.5548,-1.35882 0.77826,-1.63722 1.369,-1.70566 0.64825,-0.0751 0.7905,0.0986 1.73958,2.12386 1.20323,2.56762 2.52985,3.87197 4.80314,4.72252 1.82654,0.68339 2.14087,0.93889 2.14087,1.74014 0,0.44481 -0.21771,0.72267 -0.7276,0.92861 -2.88004,1.16325 -4.11641,1.93014 -5.08285,3.15277 -0.56385,0.71333 -1.16731,1.74514 -1.34102,2.29292 -0.6575,2.07338 -1.37286,2.64542 -2.15539,1.72357 z M 33.652796,166.36448 c -13.446826,0 -13.092376,-19.19209 0,-19.19209 13.092376,0 13.446826,19.19209 0,19.19209 z m 0,-14.39168 c -6.276145,0 -6.430578,9.73103 0,9.73103 6.430579,0 6.276145,-9.73103 0,-9.73103 z m 16.454999,3.86105 c -2.984925,0 -2.714907,-4.42343 0,-4.42343 2.714907,0 2.984926,4.42343 0,4.42343 z M 165.99902,130.668 c 13.341,0 13.38387,19.43111 0,19.43111 -13.38386,0 -13.341,-19.43111 0,-19.43111 z m 0,14.60749 c 6.53073,0 6.25227,-9.93004 0,-9.93004 -6.25227,0 -6.53073,9.93004 0,9.93004 z M 21.923494,140.98158 c 2.508179,0 2.357616,3.79337 0,3.79337 -2.357616,0 -2.50818,-3.79337 0,-3.79337 z m 163.237176,3.6348 c -4.07164,0 -4.44952,-6.34993 0,-6.34993 4.44951,0 4.07164,6.34993 0,6.34993 z M 46.603543,137.99566 c 3.310631,0 3.427777,4.87397 0,4.87397 -3.427777,0 -3.310631,-4.87397 0,-4.87397 z m -17.171896,-1.20347 c -0.280731,-0.61847 -0.513035,-1.24618 -0.516231,-1.39493 -0.0032,-0.14874 -0.363127,-0.70393 -0.799846,-1.23375 -0.562635,-0.68257 -1.330217,-1.16818 -2.633898,-1.66635 -2.832058,-1.08219 -2.83379,-1.99692 -0.0057,-3.02808 1.924982,-0.70188 3.138075,-1.88699 3.769521,-3.68255 0.777503,-2.21088 1.926161,-2.12655 2.698288,0.1981 0.537234,1.61746 1.761445,2.78786 3.702424,3.53969 2.671763,1.03489 2.672129,2.00296 0.0011,2.94443 -1.930533,0.68047 -3.318338,1.99784 -3.794794,3.60218 -0.428059,1.44139 -0.734918,1.84574 -1.40072,1.84574 -0.343199,0 -0.676446,-0.36734 -1.020126,-1.12448 z m 150.290873,-6.9448 c -0.19128,-0.23049 -0.63287,-1.03439 -0.98131,-1.78646 -1.44267,-3.11386 -4.51502,-5.95254 -7.53156,-6.95876 -2.37116,-0.79093 -2.35565,-1.79797 0.0443,-2.87499 3.26682,-1.46607 5.89022,-4.09249 7.67441,-7.68326 1.2406,-2.49677 1.66844,-2.49266 2.93471,0.0282 1.93944,3.86101 3.89137,5.9245 6.99994,7.40002 1.60949,0.76396 1.9716,1.04758 1.9716,1.54424 0,0.78293 -0.3236,1.03466 -2.25217,1.75195 -2.30039,0.85558 -5.29073,3.8831 -6.6647,6.74755 -1.02064,2.12785 -1.56934,2.58564 -2.19521,1.83151 z m 1.82368,-9.1025 c 1.13971,-1.06465 1.1427,-2.35485 0.008,-3.30991 -0.93823,-0.78947 -1.30351,-0.83493 -2.35205,-0.2927 -0.83668,0.43266 -1.47711,1.90813 -1.20303,2.77167 0.228,0.71836 1.39964,1.59855 2.12787,1.59855 0.32879,0 0.96758,-0.34542 1.41953,-0.76761 z m -23.24725,2.85317 c -2.69859,0 -2.51038,-4.00523 0,-4.00523 2.51037,0 2.69858,4.00523 0,4.00523 z M 22.015887,115.38232 c 2.462333,0 2.3221,3.6567 0,3.6567 -2.3221,0 -2.462332,-3.6567 0,-3.6567 z m 14.901315,3.4182 c -0.142605,-0.1819 -0.721512,-1.2237 -1.28646,-2.3151 -1.433564,-2.76946 -3.899167,-5.19745 -6.560371,-6.4603 -2.95417,-1.40187 -3.024915,-2.1184 -0.317898,-3.21973 3.110347,-1.26543 5.756858,-3.94426 7.304536,-7.393739 0.681738,-1.519466 0.851718,-1.711648 1.513904,-1.711648 0.664536,0 0.827371,0.186918 1.492125,1.712819 1.541863,3.539248 4.31479,6.364278 7.300889,7.438058 2.765241,0.99437 2.686406,1.93623 -0.26082,3.1161 -2.939792,1.17688 -6.23934,4.54867 -7.17413,7.33119 -0.535341,1.59351 -1.421505,2.25528 -2.011775,1.50235 z m 2.190888,-9.04995 c 0.910319,-0.91032 0.862832,-2.08829 -0.123966,-3.07509 -1.029938,-1.02994 -2.061573,-1.02497 -3.057656,0.0147 -1.006279,1.05033 -1.01969,2.24302 -0.03475,3.09023 0.978536,0.8417 2.357618,0.8289 3.216369,-0.0299 z m 122.91559,0.9449 c -5.43507,0 -5.17695,-7.55485 0,-7.55485 5.17696,0 5.43508,7.55485 0,7.55485 z m 13.26425,-13.865182 c 2.61225,0 2.51976,3.779732 0,3.779732 -2.51975,0 -2.61225,-3.779732 0,-3.779732 z m -16.31804,-3.331539 c -1.93261,-3.525618 -4.55787,-6.061617 -7.46187,-7.208149 -2.95769,-1.167733 -2.88885,-1.78221 0.37297,-3.329081 3.36047,-1.593655 5.52872,-3.885785 7.20053,-7.611934 1.05268,-2.346232 1.98268,-2.306258 2.91793,0.125419 0.60243,1.566343 2.10477,3.742715 3.57325,5.176416 1.3159,1.284728 2.31514,1.893803 4.69426,2.861343 1.84988,0.752304 1.63662,1.832922 -0.50541,2.56102 -3.32058,1.128702 -5.62092,3.449377 -8.34954,8.423364 -0.7186,1.309939 -1.30911,1.068525 -2.44212,-0.998398 z m 3.15049,-7.44818 c 0.82454,-0.824545 0.71579,-2.529314 -0.21228,-3.327605 -1.02051,-0.877805 -2.14109,-0.827328 -3.10844,0.14002 -0.88021,0.880216 -1.0088,1.94777 -0.34821,2.890896 0.83703,1.195029 2.62593,1.339689 3.66893,0.296689 z M 47.218084,92.868144 c -0.152431,-0.183668 -0.530064,-1.009923 -0.839185,-1.836122 -0.682107,-1.823096 -1.827112,-2.897138 -3.752961,-3.520367 -1.788441,-0.578762 -2.19186,-0.950362 -1.974017,-1.818319 0.129658,-0.516596 0.431366,-0.744948 1.289587,-0.976043 2.708372,-0.729289 3.844646,-1.776157 4.647159,-4.281504 0.403988,-1.261199 0.516687,-1.38891 1.225656,-1.38891 0.711565,0 0.83514,0.14241 1.394344,1.606862 0.780394,2.043709 1.9259,3.147681 4.064762,3.917384 1.539127,0.553878 1.697634,0.6803 1.697634,1.353996 0,0.670963 -0.17675,0.814674 -1.821265,1.480825 -2.352104,0.952776 -3.192437,1.78387 -3.873722,3.831134 -0.617008,1.854108 -1.374581,2.454524 -2.057992,1.631064 z M 88.7662,67.093814 c -3.8071,0 -3.732754,-5.665089 0,-5.665089 3.732755,0 3.807101,5.665089 0,5.665089 z m 15.23177,-9.610476 c 4.93637,0 4.93837,6.879166 0,6.879166 -4.938383,0 -4.936378,-6.879166 0,-6.879166 z"
       id="path1"
       inkscape:label="outline"
       sodipodi:nodetypes="szcssssccsscssssssscsssssssssssscssccscszzsscccsscscssssssscczzcccccccccccsssscsszzzzzzzzzzccccccccccssssssssscsssccccsssssssssssssssssssssssssscsccccscccsscscssssssssssssssscsssccsscssscscssscsssssssscsssccsscssssssscsscccscssssccsssscccsssccsssssssscssscssssssssscsscsssssscsscsssssssczssssczzzzzzzzzzzzzszsccccccccssssszsssszszssssssssssssssszsssssssssssszzzzzzzzzzzzzzzzzzzzzzczcssssssssssscsssssssssscsszsccsszzzzszssssssssscsszccsszzzzszszsssssssszzsszzzssssssssszzzzzzzzz"
       sodipodi:insensitive="true" /></g><g
     id="layer1"
     inkscape:label="Branding"><g
       inkscape:groupmode="layer"
       id="layer2"
       inkscape:label="UniMS Logo"><path
         d="m 16.559841,5.498661 h 3.59834 V 4.360953 h -3.59834 z m 0.74084,-3.413125 h 2.11666 v 0.529167 h -2.11666 z m 0.82021,-0.47625 h 0.5027 V 0.49803604 h -0.5027 z m 3.81,4.974167 h 11.05958 V 7.721161 H 21.930891 Z M 3.7804705,7.694703 H 14.840051 V 6.583453 H 3.7804705 Z m 29.1835405,2.54 H 3.7804705 V 9.705536 H 32.964011 Z m 0,4.153958 H 3.7804705 v 1.137708 H 32.964011 Z"
         style="display:inline;stroke-width:0.264583"
         id="path1-3" /></g></g></svg>
